<svg width="1440" height="900" viewBox="0 0 1440 900" fill="none" xmlns="http://www.w3.org/2000/svg">
  <defs>
    <linearGradient id="bg" x1="120" y1="80" x2="1320" y2="820" gradientUnits="userSpaceOnUse">
      <stop stop-color="#0E1626"/>
      <stop offset="1" stop-color="#050912"/>
    </linearGradient>
    <linearGradient id="frameStroke" x1="160" y1="120" x2="1280" y2="780" gradientUnits="userSpaceOnUse">
      <stop stop-color="#26D8FF" stop-opacity="0.72"/>
      <stop offset="1" stop-color="#4F7CFF" stop-opacity="0.18"/>
    </linearGradient>
    <linearGradient id="wideBand" x1="0" y1="0" x2="0" y2="1">
      <stop stop-color="#3A6DFF" stop-opacity="0.24"/>
      <stop offset="1" stop-color="#3A6DFF" stop-opacity="0.04"/>
    </linearGradient>
    <linearGradient id="coreBand" x1="0" y1="0" x2="0" y2="1">
      <stop stop-color="#48E8B2" stop-opacity="0.30"/>
      <stop offset="1" stop-color="#48E8B2" stop-opacity="0.06"/>
    </linearGradient>
    <linearGradient id="actualLine" x1="250" y1="690" x2="690" y2="360" gradientUnits="userSpaceOnUse">
      <stop stop-color="#4BE0FF"/>
      <stop offset="1" stop-color="#7DA7FF"/>
    </linearGradient>
    <linearGradient id="projectedLine" x1="690" y1="360" x2="1190" y2="230" gradientUnits="userSpaceOnUse">
      <stop stop-color="#7DA7FF"/>
      <stop offset="1" stop-color="#48E8B2"/>
    </linearGradient>
    <filter id="softGlow" x="-20%" y="-20%" width="140%" height="140%">
      <feGaussianBlur stdDeviation="14" result="blur"/>
      <feMerge>
        <feMergeNode in="blur"/>
        <feMergeNode in="SourceGraphic"/>
      </feMerge>
    </filter>
  </defs>

  <rect width="1440" height="900" rx="34" fill="url(#bg)"/>
  <rect x="28" y="28" width="1384" height="844" rx="28" fill="#08111E" stroke="#17324A"/>
  <rect x="72" y="72" width="1296" height="756" rx="26" fill="#07101A" stroke="url(#frameStroke)"/>

  <circle cx="1080" cy="190" r="180" fill="#0BD4FF" fill-opacity="0.05"/>
  <circle cx="1190" cy="655" r="170" fill="#4F7CFF" fill-opacity="0.06"/>

  <text x="120" y="132" fill="#93AFCC" font-family="'Segoe UI', Arial, sans-serif" font-size="22" letter-spacing="4">CORTEX / MONTE CARLO SURFACE</text>
  <text x="120" y="192" fill="#F4FAFF" font-family="'Segoe UI Semibold', 'Segoe UI', Arial, sans-serif" font-size="58">Knowledge compounds. Savings follow.</text>
  <text x="120" y="232" fill="#88A5C2" font-family="'Segoe UI', Arial, sans-serif" font-size="24">A 30-day projection surface for cumulative token savings, built from Cortex's current daily-savings model.</text>

  <rect x="964" y="122" width="344" height="128" rx="22" fill="#0C1727" stroke="#16324B"/>
  <text x="996" y="166" fill="#7997B5" font-family="'Segoe UI', Arial, sans-serif" font-size="18">Projection lens</text>
  <text x="996" y="208" fill="#F8FCFF" font-family="'Segoe UI Semibold', 'Segoe UI', Arial, sans-serif" font-size="40">p10 / p50 / p90</text>
  <text x="996" y="234" fill="#36E6B0" font-family="'Segoe UI', Arial, sans-serif" font-size="18">Conservative, median, and breakout paths</text>

  <g opacity="0.9">
    <path d="M188 738H1242" stroke="#0F2436"/>
    <path d="M188 654H1242" stroke="#0F2436"/>
    <path d="M188 570H1242" stroke="#0F2436"/>
    <path d="M188 486H1242" stroke="#0F2436"/>
    <path d="M188 402H1242" stroke="#0F2436"/>
    <path d="M188 318H1242" stroke="#0F2436"/>
    <path d="M188 234H1242" stroke="#0F2436"/>

    <path d="M262 262V738" stroke="#0D2335"/>
    <path d="M430 262V738" stroke="#0D2335"/>
    <path d="M598 262V738" stroke="#0D2335"/>
    <path d="M766 262V738" stroke="#0D2335"/>
    <path d="M934 262V738" stroke="#0D2335"/>
    <path d="M1102 262V738" stroke="#0D2335"/>
  </g>

  <text x="126" y="742" fill="#89A6C4" font-family="'Consolas', 'Courier New', monospace" font-size="18">0</text>
  <text x="106" y="658" fill="#89A6C4" font-family="'Consolas', 'Courier New', monospace" font-size="18">4M</text>
  <text x="106" y="574" fill="#89A6C4" font-family="'Consolas', 'Courier New', monospace" font-size="18">8M</text>
  <text x="94" y="490" fill="#89A6C4" font-family="'Consolas', 'Courier New', monospace" font-size="18">12M</text>
  <text x="94" y="406" fill="#89A6C4" font-family="'Consolas', 'Courier New', monospace" font-size="18">16M</text>
  <text x="94" y="322" fill="#89A6C4" font-family="'Consolas', 'Courier New', monospace" font-size="18">20M</text>
  <text x="94" y="238" fill="#89A6C4" font-family="'Consolas', 'Courier New', monospace" font-size="18">24M</text>

  <path d="M262 702C315 688 352 676 408 630C468 580 522 522 598 474C636 450 664 430 690 402" stroke="url(#actualLine)" stroke-width="7" stroke-linecap="round" stroke-linejoin="round" filter="url(#softGlow)"/>
  <path d="M690 402C766 368 850 334 934 290C1006 252 1080 224 1180 206" stroke="url(#projectedLine)" stroke-width="7" stroke-linecap="round" stroke-linejoin="round" filter="url(#softGlow)"/>

  <path d="M690 402C770 350 846 310 930 268C1010 226 1092 194 1180 166L1180 250C1098 280 1018 320 936 362C850 406 772 452 690 506Z" fill="url(#wideBand)"/>
  <path d="M690 402C770 366 846 336 930 302C1008 272 1092 244 1180 226L1180 190C1098 208 1018 238 936 272C850 308 772 346 690 438Z" fill="url(#coreBand)"/>

  <path d="M690 402C770 354 846 320 930 286C1008 254 1092 222 1180 206" stroke="#48E8B2" stroke-width="2.5" stroke-dasharray="10 10"/>

  <circle cx="262" cy="702" r="7" fill="#4BE0FF"/>
  <circle cx="408" cy="630" r="7" fill="#4BE0FF"/>
  <circle cx="598" cy="474" r="7" fill="#7DA7FF"/>
  <circle cx="690" cy="402" r="8" fill="#B6F6FF"/>
  <circle cx="1180" cy="206" r="9" fill="#48E8B2"/>
  <circle cx="1180" cy="206" r="22" fill="#48E8B2" fill-opacity="0.10"/>

  <path d="M690 266V738" stroke="#1D3D59" stroke-dasharray="4 8"/>
  <text x="666" y="252" fill="#87A4C2" font-family="'Consolas', 'Courier New', monospace" font-size="16">today</text>

  <text x="254" y="780" fill="#7C99B6" font-family="'Consolas', 'Courier New', monospace" font-size="16">-7d</text>
  <text x="398" y="780" fill="#7C99B6" font-family="'Consolas', 'Courier New', monospace" font-size="16">-4d</text>
  <text x="566" y="780" fill="#7C99B6" font-family="'Consolas', 'Courier New', monospace" font-size="16">-1d</text>
  <text x="760" y="780" fill="#7C99B6" font-family="'Consolas', 'Courier New', monospace" font-size="16">+10d</text>
  <text x="926" y="780" fill="#7C99B6" font-family="'Consolas', 'Courier New', monospace" font-size="16">+20d</text>
  <text x="1090" y="780" fill="#7C99B6" font-family="'Consolas', 'Courier New', monospace" font-size="16">+30d</text>

  <rect x="934" y="316" width="248" height="48" rx="14" fill="#0D1B2B" stroke="#17344F"/>
  <text x="958" y="346" fill="#BEEFFF" font-family="'Segoe UI Semibold', 'Segoe UI', Arial, sans-serif" font-size="20">p90 breakout band</text>
  <rect x="934" y="374" width="248" height="48" rx="14" fill="#0D1B2B" stroke="#17344F"/>
  <text x="958" y="404" fill="#BEEFFF" font-family="'Segoe UI Semibold', 'Segoe UI', Arial, sans-serif" font-size="20">p50 median path</text>
  <rect x="934" y="432" width="248" height="48" rx="14" fill="#0D1B2B" stroke="#17344F"/>
  <text x="958" y="462" fill="#BEEFFF" font-family="'Segoe UI Semibold', 'Segoe UI', Arial, sans-serif" font-size="20">p10 conservative floor</text>

  <rect x="206" y="284" width="254" height="82" rx="18" fill="#0C1727" stroke="#16324B"/>
  <text x="234" y="320" fill="#7997B5" font-family="'Segoe UI', Arial, sans-serif" font-size="18">Actual cumulative savings</text>
  <text x="234" y="354" fill="#F8FCFF" font-family="'Segoe UI Semibold', 'Segoe UI', Arial, sans-serif" font-size="34">Historical run-up</text>

  <rect x="1040" y="540" width="220" height="118" rx="22" fill="#0C1727" stroke="#16324B"/>
  <text x="1070" y="582" fill="#7997B5" font-family="'Segoe UI', Arial, sans-serif" font-size="18">What this shows</text>
  <text x="1070" y="620" fill="#F8FCFF" font-family="'Segoe UI Semibold', 'Segoe UI', Arial, sans-serif" font-size="28">Savings are a compounding system output.</text>
  <text x="1070" y="648" fill="#35D8FF" font-family="'Segoe UI', Arial, sans-serif" font-size="16">Cortex grows memory value instead of re-paying the same context bill each session.</text>
</svg>
